<svg width="49" height="58" viewBox="0 0 49 58" fill="none" xmlns="http://www.w3.org/2000/svg">
<path d="M24.5002 56.7497C24.3006 56.7497 24.1092 56.6997 23.9262 56.6079C3.29464 45.9585 0.615861 24.9849 0.416201 16.4704C0.366285 14.4022 1.93029 12.5675 4.12656 12.1088C21.3805 8.54792 23.2607 1.45942 23.2773 1.38436C23.4104 0.817284 23.9595 0.425332 24.5169 0.416992C25.0992 0.425332 25.6067 0.833963 25.7232 1.40938C25.7315 1.45942 27.6199 8.54792 44.8656 12.1172C47.0619 12.5675 48.6259 14.4022 48.576 16.4787C48.4262 23.1252 46.2799 45.6666 25.0659 56.6246C24.8912 56.7164 24.6916 56.7664 24.4919 56.7664L24.5002 56.7497Z" fill="#D11A12"/>
<path d="M14.9717 28.3601L22.1098 35.3888L36.0689 21.7777" stroke="white" stroke-width="2.72222"/>
</svg>
