<svg width="50" height="35" viewBox="0 0 50 35" fill="none" xmlns="http://www.w3.org/2000/svg">
<path fill-rule="evenodd" clip-rule="evenodd" d="M18.7548 1.68082C18.7548 2.2881 18.4262 2.81935 17.9384 3.10987L24.9973 18.1889L32.051 3.1322C31.5368 2.8444 31.1897 2.2937 31.1936 1.66384C31.1993 0.741371 31.9463 0 32.8744 0C33.8026 0 34.5439 0.758349 34.5383 1.68082C34.5383 2.52523 33.9028 3.22263 33.0877 3.33027L37.1479 22.3089L47.2762 11.3301C46.8956 11.0216 46.653 10.5499 46.6563 10.0228C46.6619 9.10029 47.4146 8.35326 48.3371 8.35892C49.2596 8.35892 50.0066 9.11727 50.0009 10.0397C50.0009 10.9622 49.2426 11.7092 48.3201 11.7036C48.1313 11.7024 47.9499 11.67 47.7807 11.6112L40.2039 34.7651H9.76246L2.21891 11.6144C2.04646 11.6732 1.86154 11.7047 1.6695 11.7035C0.741371 11.6978 0 10.9451 0 10.017C0 9.09454 0.758349 8.34751 1.68082 8.35317C2.60329 8.35883 3.35032 9.11152 3.34466 10.034L3.35032 10.0396C3.35032 10.5627 3.10648 11.0294 2.72715 11.3344L12.8411 22.3089L16.9105 3.33575C16.0649 3.24836 15.4049 2.53114 15.4102 1.66384C15.4158 0.741371 16.1685 0 17.091 0C18.0135 0 18.7605 0.758349 18.7548 1.68082Z" fill="#D11A12"/>
</svg>
