<svg width="50" height="67" viewBox="0 0 50 67" fill="none" xmlns="http://www.w3.org/2000/svg">
<g clip-path="url(#clip0_45_385)">
<path d="M0 60.3194L0 16.2215H16.564C16.564 16.2215 16.58 16.2215 16.5881 16.2215C17.1144 16.2102 17.6294 16.0569 18.0771 15.7776C18.7446 15.361 19.2115 14.7071 19.3913 13.9386C19.5694 13.1749 19.4426 12.387 19.0366 11.717C18.3499 10.5335 17.9905 9.18539 17.9969 7.80819C17.9969 6.40193 18.3691 5.01665 19.0784 3.80414C20.139 1.9894 21.8398 0.697764 23.8648 0.168195C25.8898 -0.361374 27.9998 -0.0643 29.8049 1.00291C33.5291 3.20675 34.7775 8.04875 32.5872 11.7961C32.5792 11.8106 32.5712 11.8252 32.5632 11.8381C32.3321 12.274 32.2118 12.7664 32.215 13.2605C32.2214 14.0565 32.5343 14.8024 33.0975 15.361C33.6559 15.9148 34.3924 16.2183 35.1658 16.2183H49.8621V30.9913C49.8621 31.0979 49.8364 31.2045 49.7867 31.2981C49.6246 31.6049 49.2459 31.7243 48.9394 31.571C47.3862 30.6588 45.6164 30.176 43.8176 30.176H43.808C38.2065 30.1809 33.6527 34.771 33.6575 40.4073C33.6607 43.1375 34.7197 45.7046 36.6404 47.6324C38.5595 49.5602 41.1075 50.6193 43.8112 50.6193H43.8209C45.61 50.6338 47.3573 50.1527 48.8945 49.2453C48.9025 49.2405 48.9106 49.2356 48.9186 49.2308C49.0133 49.1727 49.1208 49.1404 49.2315 49.1371C49.5765 49.1371 49.8508 49.3987 49.8621 49.7378L49.8621 66.3885H6.0364C2.70852 66.3885 0 63.6632 0 60.3146L0 60.3194Z" fill="#D11A12"/>
</g>
<defs>
<clipPath id="clip0_45_385">
<rect width="50" height="66.3934" fill="white"/>
</clipPath>
</defs>
</svg>
