<svg width="50" height="70" viewBox="0 0 50 70" fill="none" xmlns="http://www.w3.org/2000/svg">
<g clip-path="url(#clip0_43_329)">
<path d="M22.9837 47.9314L14.3004 68.5647C14.1421 68.988 13.7337 69.2536 13.2837 69.2453C12.8337 69.2287 12.4421 68.9216 12.3254 68.49L10.6337 62.4229L3.85874 68.9548C3.65874 69.1457 3.4004 69.2453 3.13374 69.2453C2.93374 69.2453 2.74207 69.1872 2.56707 69.0793C2.15874 68.8137 1.99207 68.3075 2.15874 67.851L12.7671 42.1963M22.9921 47.9314L12.7671 42.1963L22.9921 47.9314Z" fill="#D11A12"/>
<path d="M26.8916 47.9314L37.1166 42.188L47.7249 67.8427C47.8916 68.2992 47.7249 68.8054 47.3166 69.071C47.1416 69.1872 46.9416 69.237 46.7499 69.237C46.4833 69.237 46.2249 69.1374 46.0249 68.9465L39.2499 62.4146L37.5583 68.4818C37.4416 68.9133 37.0499 69.2204 36.5999 69.237C36.1583 69.2536 35.7333 68.9797 35.5833 68.5564L26.8999 47.9231" fill="#D11A12"/>
<path d="M39.2985 42.2018C39.1829 43.8656 38.9519 45.6341 37.4921 46.4712C37.051 46.7223 36.5574 46.8479 36.0113 46.8479C34.8561 46.8479 33.6694 46.2619 32.5142 45.6968C31.8 45.3411 30.8129 44.8597 30.3613 44.8597C30.0567 44.9958 29.3951 45.9898 28.996 46.5863C28.2714 47.6641 27.4837 48.857 26.402 49.4325M26.402 49.4325C25.9819 49.6628 25.5093 49.7988 24.9947 49.7988C23.1359 49.7988 21.9912 48.0931 20.983 46.5863C20.5839 45.9898 19.9223 44.9958 19.5967 44.8388C19.1766 44.8493 18.1895 45.3306 17.4648 45.6864C16.3201 46.2515 15.1229 46.8374 13.9677 46.8374C13.4215 46.8374 12.928 46.7119 12.4869 46.4607C10.9011 45.5504 10.775 43.5203 10.6595 41.7414C10.6175 41.0089 10.5335 39.7846 10.313 39.4916C10.0504 39.3033 8.82168 39.23 8.08654 39.1777C6.29069 39.0626 4.26381 38.9266 3.35014 37.3569C2.44696 35.7978 3.33963 33.9875 4.11678 32.3969C4.45285 31.7272 4.99895 30.5971 4.95694 30.2309C4.82042 29.9483 3.82273 29.2891 3.22411 28.8915C1.71183 27.8869 0 26.7568 0 24.8942C0 23.0315 1.71183 21.9014 3.22411 20.8969C3.82273 20.4992 4.82042 19.84 4.96744 19.5156C4.99895 19.1912 4.44234 18.0716 4.11678 17.3914C3.32913 15.8008 2.43646 14.001 3.35014 12.4314C4.26381 10.8513 6.3012 10.7257 8.08654 10.6106C8.82168 10.5583 10.0504 10.4851 10.355 10.2653C10.544 10.0037 10.6175 8.7794 10.67 8.04692C10.7855 6.25755 10.9221 4.23797 12.4974 3.32759C12.9385 3.07645 13.4321 2.95088 13.9782 2.95088C15.1334 2.95088 16.3201 3.53688 17.4753 4.10194C18.2 4.45772 19.1766 4.93907 19.6282 4.93907C19.9328 4.80304 20.5944 3.80894 20.9935 3.21249C22.0017 1.70565 23.1359 0 25.0052 0C26.8746 0 28.0088 1.70565 29.017 3.21249C29.4161 3.80894 30.0777 4.80304 30.4033 4.94953C30.8234 4.93907 31.8105 4.45772 32.5352 4.10194C33.6799 3.53688 34.8771 2.95088 36.0323 2.95088C36.5784 2.95088 37.072 3.07645 37.5131 3.32759C39.0989 4.23797 39.225 6.26801 39.3405 8.04692C39.3825 8.7794 39.4665 10.0037 39.687 10.3072C39.9496 10.4955 41.1783 10.5688 41.9135 10.6211C43.6988 10.7362 45.7362 10.8722 46.6499 12.4419C47.553 14.001 46.6604 15.8113 45.8832 17.4018C45.5472 18.0716 45.001 19.2017 45.0431 19.5679C45.1796 19.8505 46.1773 20.5097 46.7759 20.9073C48.2882 21.9119 50 23.042 50 24.9046C50 26.7672 48.2882 27.8974 46.7759 28.9019C46.1773 29.2996 45.1796 29.9588 45.0326 30.2832C45.001 30.6076 45.5577 31.7272 45.8832 32.4074C46.6709 33.998 47.5635 35.7978 46.6499 37.3674C45.7362 38.9475 43.6988 39.0731 41.9135 39.1882C41.1783 39.2405 39.9496 39.3137 39.645 39.5335C39.456 39.7951 39.3825 41.0194 39.33 41.7519C39.33 41.8984 39.309 42.0553 39.2985 42.2123" fill="#D11A12"/>
<path d="M39.2985 42.2018C39.1829 43.8656 38.9519 45.6341 37.4921 46.4712C37.051 46.7223 36.5574 46.8479 36.0113 46.8479C34.8561 46.8479 33.6694 46.2619 32.5142 45.6969C31.8 45.3411 30.8129 44.8597 30.3613 44.8597C30.0567 44.9958 29.3951 45.9898 28.996 46.5863C28.2714 47.6641 27.4837 48.857 26.402 49.4325C25.9819 49.6628 25.5093 49.7988 24.9947 49.7988C23.1359 49.7988 21.9912 48.0931 20.983 46.5863C20.5839 45.9898 19.9223 44.9958 19.5967 44.8388C19.1766 44.8493 18.1895 45.3306 17.4648 45.6864C16.3201 46.2515 15.1229 46.8374 13.9677 46.8374C13.4215 46.8374 12.928 46.7119 12.4869 46.4607C10.9011 45.5504 10.775 43.5203 10.6595 41.7414C10.6175 41.0089 10.5335 39.7846 10.313 39.4916C10.0504 39.3033 8.82168 39.23 8.08654 39.1777C6.29069 39.0626 4.26381 38.9266 3.35014 37.3569C2.44696 35.7978 3.33963 33.9875 4.11678 32.3969C4.45285 31.7272 4.99895 30.5971 4.95694 30.2309C4.82042 29.9483 3.82273 29.2891 3.22411 28.8915C1.71183 27.8869 0 26.7568 0 24.8942C0 23.0315 1.71183 21.9014 3.22411 20.8969C3.82273 20.4992 4.82042 19.84 4.96744 19.5156C4.99895 19.1912 4.44234 18.0716 4.11678 17.3914C3.32913 15.8008 2.43646 14.001 3.35014 12.4314C4.26381 10.8513 6.3012 10.7257 8.08654 10.6106C8.82168 10.5583 10.0504 10.4851 10.355 10.2653C10.544 10.0037 10.6175 8.7794 10.67 8.04692C10.7855 6.25755 10.9221 4.23797 12.4974 3.32759C12.9385 3.07645 13.4321 2.95088 13.9782 2.95088C15.1334 2.95088 16.3201 3.53688 17.4753 4.10194C18.2 4.45772 19.1766 4.93907 19.6282 4.93907C19.9328 4.80304 20.5944 3.80894 20.9935 3.21249C22.0017 1.70565 23.1359 0 25.0052 0C26.8746 0 28.0088 1.70565 29.017 3.21249C29.4161 3.80894 30.0777 4.80304 30.4033 4.94953C30.8234 4.93907 31.8105 4.45772 32.5352 4.10194C33.6799 3.53688 34.8771 2.95088 36.0323 2.95088C36.5785 2.95088 37.072 3.07645 37.5131 3.32759C39.0989 4.23797 39.225 6.26801 39.3405 8.04692C39.3825 8.7794 39.4665 10.0037 39.687 10.3072C39.9496 10.4955 41.1783 10.5688 41.9135 10.6211C43.6988 10.7362 45.7362 10.8722 46.6499 12.4419C47.553 14.001 46.6604 15.8113 45.8832 17.4018C45.5472 18.0716 45.001 19.2017 45.0431 19.5679C45.1796 19.8505 46.1773 20.5097 46.7759 20.9073C48.2882 21.9119 50 23.042 50 24.9046C50 26.7672 48.2882 27.8974 46.7759 28.9019C46.1773 29.2996 45.1796 29.9588 45.0326 30.2832C45.0011 30.6076 45.5577 31.7272 45.8832 32.4074C46.6709 33.998 47.5635 35.7978 46.6499 37.3674C45.7362 38.9475 43.6988 39.0731 41.9135 39.1882C41.1783 39.2405 39.9496 39.3137 39.645 39.5335C39.456 39.7951 39.3825 41.0194 39.33 41.7519C39.33 41.8984 39.309 42.0553 39.2985 42.2123" stroke="white" stroke-width="1.40845" stroke-miterlimit="10"/>
<path d="M24.9993 11.6196C17.6496 11.6196 11.666 17.5791 11.666 24.8993C11.666 32.2195 17.6496 38.179 24.9993 38.179C32.3491 38.179 38.3327 32.2195 38.3327 24.8993C38.3327 17.5791 32.3491 11.6196 24.9993 11.6196Z" fill="white"/>
</g>
<defs>
<clipPath id="clip0_43_329">
<rect width="50" height="69.7183" fill="white"/>
</clipPath>
</defs>
</svg>
