<svg width="51" height="48" viewBox="0 0 51 48" fill="none" xmlns="http://www.w3.org/2000/svg">
<path d="M39.854 47.6502C39.6862 47.6502 39.5184 47.6082 39.3646 47.5313L25.1639 40.0639L10.9631 47.5313C10.6135 47.7201 10.18 47.6851 9.85839 47.4544C9.53676 47.2167 9.37594 46.8251 9.43887 46.4266L12.1518 30.6177L0.663924 19.4165C0.377252 19.1368 0.272372 18.7173 0.398228 18.3398C0.524084 17.9622 0.852707 17.6825 1.24426 17.6266L17.1231 15.3192L24.2199 0.936692C24.3947 0.580101 24.7583 0.349365 25.1569 0.349365C25.5554 0.349365 25.919 0.573109 26.0938 0.936692L33.1907 15.3262L49.0695 17.6336C49.461 17.6895 49.7896 17.9692 49.9155 18.3467C50.0413 18.7243 49.9365 19.1438 49.6498 19.4235L38.162 30.6177L40.8748 46.4266C40.9448 46.8181 40.784 47.2167 40.4553 47.4544C40.2735 47.5872 40.0568 47.6572 39.84 47.6572L39.854 47.6502Z" fill="#D11A12"/>
</svg>
