<svg width="35" height="35" viewBox="0 0 35 35" fill="none" xmlns="http://www.w3.org/2000/svg">
<path d="M17.3416 0.316406C7.76417 0.316406 0 8.08058 0 17.658C0 25.7905 5.59925 32.6148 13.1526 34.489V22.9576H9.57672V17.658H13.1526V15.3745C13.1526 9.47207 15.8238 6.73626 21.6187 6.73626C22.7175 6.73626 24.6133 6.95199 25.3888 7.16703V11.9706C24.9795 11.9276 24.2685 11.9061 23.3855 11.9061C20.5421 11.9061 19.4434 12.9834 19.4434 15.7837V17.658H25.1078L24.1346 22.9576H19.4434V34.8726C28.0302 33.8356 34.6839 26.5244 34.6839 17.658C34.6832 8.08058 26.919 0.316406 17.3416 0.316406Z" fill="white"/>
</svg>
