<svg width="35" height="35" viewBox="0 0 35 35" fill="none" xmlns="http://www.w3.org/2000/svg">
<path d="M32.1158 0.316406H2.56059C1.14482 0.316406 0 1.43413 0 2.81603V32.4932C0 33.8751 1.14482 34.9996 2.56059 34.9996H32.1158C33.5316 34.9996 34.6832 33.8751 34.6832 32.4999V2.81603C34.6832 1.43413 33.5316 0.316406 32.1158 0.316406ZM10.2898 29.8716H5.14151V13.3158H10.2898V29.8716ZM7.71565 11.0601C6.06278 11.0601 4.72829 9.72557 4.72829 8.07947C4.72829 6.43338 6.06278 5.09889 7.71565 5.09889C9.36175 5.09889 10.6962 6.43338 10.6962 8.07947C10.6962 9.7188 9.36175 11.0601 7.71565 11.0601ZM29.5552 29.8716H24.4137V21.824C24.4137 19.907 24.3798 17.4344 21.7379 17.4344C19.0622 17.4344 18.6557 19.5276 18.6557 21.6886V29.8716H13.521V13.3158H18.4525V15.5784H18.5203C19.2044 14.2777 20.8844 12.9026 23.384 12.9026C28.5933 12.9026 29.5552 16.3303 29.5552 20.7876V29.8716V29.8716Z" fill="white"/>
</svg>
