<svg width="50" height="66" viewBox="0 0 50 66" fill="none" xmlns="http://www.w3.org/2000/svg">
<path fill-rule="evenodd" clip-rule="evenodd" d="M23.9922 0H25.7045C27.8657 0 29.6301 1.54146 29.6301 3.41128V15.1866C29.6301 17.0564 27.8657 18.5979 25.7045 18.5979H23.9922C21.831 18.5979 20.0666 17.0564 20.0666 15.1866V3.41128C20.0666 1.54146 21.831 0 23.9922 0ZM18.6467 5.83748C5.60648 9.43118 -0.344612 23.806 2.3908 27.2811C2.53697 27.4453 2.74578 27.573 3.00679 27.573H46.5855C46.8256 27.573 47.0553 27.4453 47.2015 27.2629C49.8847 23.806 44.0067 9.54063 31.0605 5.88308V15.1957C31.0605 16.4726 30.4758 17.6401 29.5048 18.4884C28.513 19.3275 27.1975 19.8657 25.7149 19.8657H24.0027C22.5201 19.8657 21.1837 19.3275 20.2128 18.4884C19.2522 17.6493 18.6571 16.4726 18.6571 15.1957V5.8466L18.6467 5.83748ZM46.2932 35.335L46.7212 29.4793C46.7421 29.2786 46.6481 29.0688 46.4811 28.9229C46.314 28.7587 46.1052 28.6766 45.8442 28.6766H3.71675C3.47662 28.6766 3.24692 28.7587 3.07988 28.9229C2.91283 29.0688 2.83974 29.2695 2.83974 29.4793L3.28869 35.335L1.92098 35.4809C-2.24479 35.9552 1.49292 40.9536 2.63093 44.1551C2.70402 44.3192 2.87107 44.4196 3.05899 44.5017C3.71675 44.7479 4.20745 45.3864 4.46846 46.3076V46.3259C5.33503 49.1625 8.20617 56.4411 11.0564 59.7065C18.3752 68.0978 31.2171 68.0978 38.515 59.7065C41.3652 56.4411 44.2364 49.1625 45.1029 46.3259V46.3076C45.364 45.3864 45.8547 44.7479 46.5124 44.5017C46.7003 44.4196 46.8883 44.3192 46.9405 44.1551C49.0077 38.272 52.2547 35.9917 46.3036 35.335H46.2932Z" fill="#D11A12"/>
</svg>
