<svg width="50" height="49" viewBox="0 0 50 49" fill="none" xmlns="http://www.w3.org/2000/svg">
<path fill-rule="evenodd" clip-rule="evenodd" d="M39.0658 21.6053C39.2067 21.7587 39.3211 21.9197 39.4444 22.0883C39.5236 22.2263 39.6029 22.349 39.6645 22.4487C39.7878 22.694 39.9022 22.9317 39.9815 23.177C47.2804 14.0536 50.3004 14.6439 36.3892 5.93455C26.8451 0.123182 17.8028 -1.04983 9.92273 0.820853C5.55567 1.87119 5.15947 3.42754 10.0988 3.16687C32.8938 2.33886 18.2959 18.669 18.4103 18.784C18.4103 18.7993 18.8682 19.06 19.5637 19.4893L0 44.0458L7.26376 48.4848L26.8451 23.936C27.4966 24.3347 27.8928 24.5954 27.8928 24.5954C27.6111 24.9404 28.5268 23.8517 28.8261 23.522C30.2348 22.0883 33.2108 19.635 36.8647 20.2713C37.437 20.3787 37.9124 20.601 38.3174 20.8923C38.5199 21.0457 38.7136 21.2067 38.8721 21.3753C38.9513 21.4443 39.013 21.5287 39.0746 21.5977L39.0658 21.6053ZM41.5839 24.902C42.3763 25.4004 43.4857 25.2317 44.0668 24.5187L49.6841 17.5036C50.2388 16.7983 50.0451 15.8246 49.2439 15.3263L47.5006 14.2913L39.9022 23.8823L41.5927 24.902H41.5839Z" fill="#D11A12"/>
</svg>
