<svg width="50" height="58" viewBox="0 0 50 58" fill="none" xmlns="http://www.w3.org/2000/svg">
<g clip-path="url(#clip0_47_40)">
<path d="M24.8562 57.577C24.6536 57.577 24.4595 57.5262 24.2738 57.4332C3.3415 46.6285 0.623671 25.3491 0.4211 16.7105C0.370458 14.6122 1.95726 12.7507 4.18554 12.2854C21.691 8.67255 23.5986 1.48072 23.6155 1.40457C23.7505 0.829223 24.3076 0.431557 24.8731 0.423096C25.4639 0.431557 25.9788 0.846145 26.097 1.42995C26.1054 1.48072 28.0214 8.67255 45.5185 12.2938C47.7467 12.7507 49.3335 14.6122 49.2829 16.7189C49.131 23.4623 46.9533 46.3324 25.4302 57.4501C25.2529 57.5432 25.0503 57.5939 24.8478 57.5939L24.8562 57.577Z" fill="#D11A12"/>
<path d="M28.6886 38.0744C28.6886 38.0744 28.6802 38.0744 28.6718 38.0744H21.0331C20.7293 38.0744 20.4339 37.939 20.2397 37.7106C20.0372 37.4821 19.9528 37.1691 19.995 36.873L21.3032 27.5236C20.4592 26.7029 19.9865 25.6029 19.9865 24.4438C19.9865 21.9563 22.1726 19.9341 24.8651 19.9341C27.5576 19.9341 29.7352 21.9563 29.7352 24.4438C29.7352 25.6029 29.2626 26.6944 28.4185 27.5236L29.7015 36.6868C29.7352 36.7883 29.7521 36.8983 29.7521 37.0168C29.7521 37.6006 29.2795 38.0744 28.6971 38.0744H28.6886Z" fill="white"/>
</g>
<defs>
<clipPath id="clip0_47_40">
<rect width="49.7143" height="58" fill="white"/>
</clipPath>
</defs>
</svg>
