<svg width="60" height="54" viewBox="0 0 60 54" fill="none" xmlns="http://www.w3.org/2000/svg">
<path d="M41.7194 54C51.4686 54 59.4019 46.0721 59.4019 36.3229C59.4019 26.5737 51.8048 18.9686 42.1095 18.7991L37.6949 18.7157L37.3398 18.7292H27.327C33.7511 21.9789 37.9397 28.4945 37.9397 35.8709C37.9397 43.8634 32.8176 50.9278 25.7129 53.9516L41.0711 53.9704C41.2863 53.9839 41.5015 54 41.7194 54Z" fill="white"/>
<path d="M38.026 0.0755367H37.9749C37.9668 0.0755367 37.9587 0.0755367 37.9507 0.0755367H26.4609C33.1245 3.10467 37.835 9.48844 38.2008 17.0236C42.7661 16.8891 46.4301 13.1525 46.4301 8.55495C46.4301 3.95745 42.6746 0.115889 38.026 0.0755367Z" fill="white"/>
<path d="M22.2393 0.0755367V17.0586H36.707C36.3223 8.68677 30.2506 1.83491 22.2393 0.0755367Z" fill="white"/>
<path d="M22.366 18.9094H22.3633V53.4942C30.232 51.5358 36.2661 44.3611 36.2661 36.0727C36.2661 27.7843 30.5495 20.7872 22.366 18.9094Z" fill="white"/>
<path d="M18.0914 53.8467C18.9308 53.8467 19.754 53.7686 20.5664 53.653V36.6134H0.25293C0.626863 46.1716 8.48485 53.8493 18.0914 53.8493V53.8467Z" fill="white"/>
<path d="M20.5664 0.0513244C19.8077 -0.0455217 18.6859 0.0244227 17.9004 0.0244227C7.83378 0.0244227 0 7.92007 0 17.7903C0 25.7129 5.43145 32.7772 13.2114 34.967L14.1987 35.2468V17.0586H20.5664V0.0513244Z" fill="white"/>
<path d="M20.5664 18.7319H15.8721V34.9375H20.5664V18.7319Z" fill="white"/>
</svg>
